<svg width="96" height="96" viewBox="0 0 96 96" fill="none" xmlns="http://www.w3.org/2000/svg">
  <defs>
    <radialGradient id="kingGold" cx="0" cy="0" r="1" gradientUnits="userSpaceOnUse" gradientTransform="translate(28 18) rotate(52) scale(86 78)">
      <stop offset="0" stop-color="#FFF7D6" />
      <stop offset="0.42" stop-color="#E8C86E" />
      <stop offset="1" stop-color="#A77A2F" />
    </radialGradient>
    <linearGradient id="kingTrim" x1="16" y1="10" x2="80" y2="86" gradientUnits="userSpaceOnUse">
      <stop offset="0" stop-color="#FFF3B8" />
      <stop offset="1" stop-color="#B98A3D" />
    </linearGradient>
    <linearGradient id="crownFill" x1="30" y1="34" x2="66" y2="68" gradientUnits="userSpaceOnUse">
      <stop offset="0" stop-color="#FDE8B6" />
      <stop offset="0.5" stop-color="#D8A74A" />
      <stop offset="1" stop-color="#7B4D1C" />
    </linearGradient>
  </defs>

  <circle cx="48" cy="48" r="37" fill="#24190D" fill-opacity="0.45" />
  <path d="M48 9L77 22V48C77 65.6 63.4 80.6 48 87C32.6 80.6 19 65.6 19 48V22L48 9Z" fill="url(#kingGold)" stroke="url(#kingTrim)" stroke-width="3.2" />

  <path d="M30 56V37.5L37.5 42L48 27L58.5 42L66 37.5V56H30Z" fill="url(#crownFill)" />
  <path d="M30 56V37.5L37.5 42L48 27L58.5 42L66 37.5V56" stroke="#6A4318" stroke-width="2.6" stroke-linejoin="round" />
  <path d="M30 56H66V61.5H30V56Z" fill="#8B5923" />
  <path d="M30 56H66V61.5H30V56Z" stroke="#5E3A15" stroke-width="1.9" />
</svg>
