<svg xmlns="http://www.w3.org/2000/svg" viewBox="0 0 220 220" role="img" aria-label="Super Metal Mons board preview">
  <defs>
    <pattern id="mons-checker" width="36" height="36" patternUnits="userSpaceOnUse">
      <rect width="36" height="36" fill="#f1f1ed" />
      <rect width="18" height="18" fill="#e6e6e1" />
      <rect x="18" y="18" width="18" height="18" fill="#e6e6e1" />
    </pattern>
    <clipPath id="mons-board-clip">
      <rect x="11" y="11" width="198" height="198" rx="9" />
    </clipPath>
  </defs>

  <rect x="0.5" y="0.5" width="219" height="219" rx="14" fill="#cad0c8" stroke="#e7ece6" />
  <g clip-path="url(#mons-board-clip)">
    <rect x="11" y="11" width="198" height="198" fill="url(#mons-checker)" />

    <rect x="11" y="11" width="18" height="18" fill="#030df4" />
    <rect x="191" y="11" width="18" height="18" fill="#030df4" />
    <rect x="11" y="191" width="18" height="18" fill="#030df4" />
    <rect x="191" y="191" width="18" height="18" fill="#030df4" />

    <rect x="11" y="101" width="18" height="18" fill="#d0ccbe" />
    <rect x="101" y="101" width="18" height="18" fill="#d0ccbe" />
    <rect x="191" y="101" width="18" height="18" fill="#d0ccbe" />

    <g opacity="0.98">
      <image href="./mons/mysticB.png" x="66" y="12" width="16" height="16" />
      <image href="./mons/spiritB.png" x="84" y="12" width="16" height="16" />
      <image href="./mons/drainerB.png" x="102" y="12" width="16" height="16" />
      <image href="./mons/angelB.png" x="120" y="12" width="16" height="16" />
      <image href="./mons/demonB.png" x="138" y="12" width="16" height="16" />

      <image href="./mons/demon.png" x="66" y="192" width="16" height="16" />
      <image href="./mons/angel.png" x="84" y="192" width="16" height="16" />
      <image href="./mons/drainer.png" x="102" y="192" width="16" height="16" />
      <image href="./mons/spirit.png" x="120" y="192" width="16" height="16" />
      <image href="./mons/mystic.png" x="138" y="192" width="16" height="16" />

      <image href="./mons/manaB.png" x="84" y="66" width="16" height="16" />
      <image href="./mons/manaB.png" x="120" y="66" width="16" height="16" />
      <image href="./mons/manaB.png" x="66" y="84" width="16" height="16" />
      <image href="./mons/manaB.png" x="102" y="84" width="16" height="16" />
      <image href="./mons/manaB.png" x="138" y="84" width="16" height="16" />

      <image href="./mons/mana.png" x="66" y="120" width="16" height="16" />
      <image href="./mons/mana.png" x="102" y="120" width="16" height="16" />
      <image href="./mons/mana.png" x="138" y="120" width="16" height="16" />
      <image href="./mons/mana.png" x="84" y="138" width="16" height="16" />
      <image href="./mons/mana.png" x="120" y="138" width="16" height="16" />

      <image href="./mons/supermana.png" x="102" y="102" width="16" height="16" />
      <image href="./mons/bombOrPotion.png" x="12" y="102" width="16" height="16" />
      <image href="./mons/bombOrPotion.png" x="192" y="102" width="16" height="16" />
    </g>
  </g>
</svg>
